<?xml version="1.0" standalone="no"?><!DOCTYPE svg PUBLIC "-//W3C//DTD SVG 1.1//EN" "http://www.w3.org/Graphics/SVG/1.1/DTD/svg11.dtd"><svg t="1681290886203" class="icon" viewBox="0 0 1024 1024" version="1.1" xmlns="http://www.w3.org/2000/svg" p-id="7614" xmlns:xlink="http://www.w3.org/1999/xlink" width="200" height="200"><path d="M256 512l81.6 108.8a32 32 0 0 1-51.2 38.4l-96-128a31.968 31.968 0 0 1 0-38.4l96-128a32 32 0 0 1 51.2 38.4L256 512z m414.4 108.8a32 32 0 0 0 51.2 38.4l96-128a31.968 31.968 0 0 0 0-38.4l-96-128a32 32 0 0 0-51.2 38.4L752 512l-81.6 108.8z m-167.168 26.144a32 32 0 1 1-62.464-13.888l64-288a32 32 0 1 1 62.464 13.888l-64 288z" p-id="7615" data-spm-anchor-id="a313x.7781069.0.i21" class="selected" fill="#1296db"></path><path d="M160 144a32 32 0 0 0-32 32v688a32 32 0 0 0 32 32h688a32 32 0 0 0 32-32V176a32 32 0 0 0-32-32H160z m0-64h688a96 96 0 0 1 96 96v688a96 96 0 0 1-96 96H160a96 96 0 0 1-96-96V176a96 96 0 0 1 96-96z" p-id="7616" data-spm-anchor-id="a313x.7781069.0.i22" class="selected" fill="#1296db"></path></svg>