<?xml version="1.0" standalone="no"?><!DOCTYPE svg PUBLIC "-//W3C//DTD SVG 1.1//EN" "http://www.w3.org/Graphics/SVG/1.1/DTD/svg11.dtd"><svg t="1681291182333" class="icon" viewBox="0 0 1024 1024" version="1.1" xmlns="http://www.w3.org/2000/svg" p-id="24951" xmlns:xlink="http://www.w3.org/1999/xlink" width="200" height="200"><path d="M1002.644 893.774H142.004c-11.782 0-21.312 9.562-21.312 21.344v42.656c0 11.782 9.532 21.344 21.312 21.344h860.64c11.782 0 21.342-9.562 21.342-21.344v-42.656c0-11.782-9.56-21.344-21.342-21.344z" fill="#F6BB42" p-id="24952"></path><path d="M368.282 731.496l-90.5-90.496c-8.344-8.344-21.842-8.344-30.156 0L6.256 882.34a21.42 21.42 0 0 0-5.968 18.528 21.298 21.298 0 0 0 11.532 15.656l120.654 60.344a21.552 21.552 0 0 0 9.532 2.25c5.532 0 11-2.156 15.094-6.25l211.184-211.184c4-4 6.25-9.438 6.25-15.094s-2.252-11.094-6.252-15.094z" fill="#FFCE54" p-id="24953"></path><path d="M459.874 702.434l-150.84-150.84c-8.312-8.344-21.844-8.344-30.156 0l-181.028 180.996c-4 4-6.25 9.438-6.25 15.094s2.25 11.094 6.25 15.094l150.84 150.84a21.356 21.356 0 0 0 30.186 0l180.998-181.028c4-4 6.25-9.438 6.25-15.094s-2.25-11.062-6.25-15.062z" fill="#434A54" p-id="24954"></path><path d="M947.866 184.288l-120.688-120.684c-12.094-12.062-28.156-18.718-45.25-18.718s-33.154 6.656-45.248 18.718L173.286 627a21.332 21.332 0 0 0 0 30.188l180.996 180.996c4 4 9.438 6.25 15.094 6.25s11.094-2.25 15.094-6.25l563.396-563.398c12.092-12.062 18.748-28.156 18.748-45.248 0-17.094-6.656-33.158-18.748-45.25z" fill="#656D78" p-id="24955"></path><path d="M947.866 274.786c12.092-12.062 18.748-28.156 18.748-45.248 0-17.094-6.656-33.156-18.748-45.25l-120.688-120.684 90.5 90.53c12.094 12.062 18.75 28.156 18.75 45.25s-6.656 33.156-18.75 45.25L354.282 808.028c-4 4-9.406 6.25-15.062 6.25a21.36 21.36 0 0 1-15.094-6.25l30.156 30.156c4 4 9.438 6.25 15.094 6.25s11.094-2.25 15.094-6.25l563.396-563.398z" fill="#080808" opacity=".2" p-id="24956"></path></svg>